<svg width="32" height="26" viewBox="0 0 32 26" fill="none" xmlns="http://www.w3.org/2000/svg">
<path d="M23.25 17.8438C23.4583 18.1146 23.5625 18.3542 23.5625 18.5625C23.5625 18.6667 23.5521 18.7396 23.5312 18.7812C23.3854 19.0938 23.1146 19.25 22.7188 19.25H18.4688C18.3021 19.75 18 20.1667 17.5625 20.5C17.1458 20.8333 16.6458 21 16.0625 21C15.4792 21 14.9688 20.8333 14.5312 20.5C14.1146 20.1667 13.8229 19.75 13.6562 19.25H9.40625C9.07292 19.25 8.82292 19.1042 8.65625 18.8125C8.59375 18.6458 8.5625 18.5104 8.5625 18.4062C8.5625 18.1979 8.625 18.0312 8.75 17.9062C8.8125 17.8438 8.90625 17.7188 9.03125 17.5312C9.17708 17.3438 9.27083 17.2188 9.3125 17.1562C9.60417 16.7396 9.82292 16.3021 9.96875 15.8438C10.1354 15.3854 10.2188 14.8854 10.2188 14.3438V12.6875C10.2188 12.0208 10.2917 11.3021 10.4375 10.5312C10.5833 9.76042 10.8646 9.05208 11.2812 8.40625C11.7188 7.71875 12.3229 7.15625 13.0938 6.71875C13.8854 6.26042 14.875 6.03125 16.0625 6.03125C17.25 6.03125 18.2292 6.25 19 6.6875C19.7708 7.125 20.375 7.67708 20.8125 8.34375C21.25 9.01042 21.5417 9.73958 21.6875 10.5312C21.8333 11.3021 21.9062 12.0208 21.9062 12.6875V14.3438C21.9062 14.8854 21.9688 15.3854 22.0938 15.8438C22.2396 16.2812 22.4271 16.6458 22.6562 16.9375C22.7396 17.1042 22.8333 17.2708 22.9375 17.4375C23.0417 17.6042 23.1458 17.7396 23.25 17.8438ZM21.0625 17.6875C20.8542 17.2708 20.6458 16.7917 20.4375 16.25C20.25 15.6875 20.1562 15.0521 20.1562 14.3438V12.6875C20.1562 12.1042 20.0938 11.5104 19.9688 10.9062C19.8646 10.2812 19.6458 9.73958 19.3125 9.28125C19.0208 8.80208 18.625 8.41667 18.125 8.125C17.625 7.83333 16.9271 7.6875 16.0312 7.6875C15.1146 7.6875 14.3958 7.83333 13.875 8.125C13.3542 8.41667 12.9688 8.80208 12.7188 9.28125C12.4271 9.73958 12.2188 10.2812 12.0938 10.9062C11.9688 11.5104 11.9062 12.1042 11.9062 12.6875V14.3438C11.9062 15.0521 11.8125 15.6875 11.625 16.25C11.4375 16.7917 11.2188 17.2708 10.9688 17.6875H21.0625Z" fill="#1D2D3E"/>
</svg>
