<svg width="32" height="26" viewBox="0 0 32 26" fill="none" xmlns="http://www.w3.org/2000/svg">
<path d="M22.6094 17.8438C22.776 18.0104 22.849 18.1979 22.8281 18.4062C22.8073 18.6146 22.7135 18.8021 22.5469 18.9688C21.8177 19.6146 21.0052 20.1042 20.1094 20.4375C19.2135 20.7917 18.2344 20.9688 17.1719 20.9688C16.0885 20.9688 15.0573 20.7604 14.0781 20.3438C13.1198 19.9271 12.276 19.3542 11.5469 18.625C10.8177 17.8958 10.2448 17.0521 9.82812 16.0938C9.41146 15.1146 9.20312 14.0729 9.20312 12.9688C9.20312 11.8646 9.41146 10.8333 9.82812 9.875C10.2448 8.91667 10.8177 8.07292 11.5469 7.34375C12.276 6.61458 13.1198 6.04167 14.0781 5.625C15.0573 5.20833 16.0885 5 17.1719 5C18.2344 5 19.2135 5.1875 20.1094 5.5625C21.0052 5.91667 21.8177 6.39583 22.5469 7C22.7135 7.16667 22.7969 7.35417 22.7969 7.5625C22.7969 7.75 22.7344 7.92708 22.6094 8.09375C22.4427 8.26042 22.2552 8.35417 22.0469 8.375C21.8385 8.375 21.651 8.3125 21.4844 8.1875C20.9427 7.66667 20.2969 7.27083 19.5469 7C18.8177 6.72917 18.0573 6.59375 17.2656 6.59375C16.3906 6.59375 15.5677 6.76042 14.7969 7.09375C14.026 7.42708 13.349 7.88542 12.7656 8.46875C12.1823 9.05208 11.724 9.72917 11.3906 10.5C11.0573 11.2708 10.8906 12.0938 10.8906 12.9688C10.8906 13.8438 11.0573 14.6771 11.3906 15.4688C11.724 16.2396 12.1823 16.9167 12.7656 17.5C13.349 18.0833 14.026 18.5417 14.7969 18.875C15.5677 19.2083 16.3906 19.375 17.2656 19.375C18.1198 19.375 18.901 19.2292 19.6094 18.9375C20.3177 18.6458 20.9427 18.2604 21.4844 17.7812C21.651 17.6146 21.8385 17.5417 22.0469 17.5625C22.2552 17.5833 22.4427 17.6771 22.6094 17.8438ZM17.1719 8.1875C17.8385 8.1875 18.4635 8.3125 19.0469 8.5625C19.6302 8.8125 20.1406 9.15625 20.5781 9.59375C21.0156 10.0312 21.3594 10.5417 21.6094 11.125C21.8594 11.6875 21.9844 12.3021 21.9844 12.9688C21.9844 13.6354 21.8594 14.2604 21.6094 14.8438C21.3594 15.4271 21.0156 15.9375 20.5781 16.375C20.1406 16.8125 19.6302 17.1562 19.0469 17.4062C18.4635 17.6562 17.8385 17.7812 17.1719 17.7812C16.526 17.7812 15.9115 17.6562 15.3281 17.4062C14.7448 17.1562 14.2344 16.8125 13.7969 16.375C13.3594 15.9375 13.0156 15.4271 12.7656 14.8438C12.5156 14.2604 12.3906 13.6354 12.3906 12.9688C12.3906 12.3021 12.5156 11.6875 12.7656 11.125C13.0156 10.5417 13.3594 10.0312 13.7969 9.59375C14.2344 9.15625 14.7448 8.8125 15.3281 8.5625C15.9115 8.3125 16.526 8.1875 17.1719 8.1875ZM17.1719 16.1562C17.6094 16.1562 18.026 16.0729 18.4219 15.9062C18.8177 15.7396 19.1615 15.5104 19.4531 15.2188C19.7448 14.9271 19.974 14.5938 20.1406 14.2188C20.3073 13.8229 20.3906 13.4062 20.3906 12.9688C20.3906 12.5312 20.3073 12.125 20.1406 11.75C19.974 11.3542 19.7448 11.0104 19.4531 10.7188C19.1615 10.4271 18.8177 10.1979 18.4219 10.0312C18.026 9.86458 17.6094 9.78125 17.1719 9.78125C16.7344 9.78125 16.3177 9.86458 15.9219 10.0312C15.5469 10.1979 15.2135 10.4271 14.9219 10.7188C14.6302 11.0104 14.401 11.3542 14.2344 11.75C14.0677 12.125 13.9844 12.5312 13.9844 12.9688C13.9844 13.4062 14.0677 13.8229 14.2344 14.2188C14.401 14.5938 14.6302 14.9271 14.9219 15.2188C15.2135 15.5104 15.5469 15.7396 15.9219 15.9062C16.3177 16.0729 16.7344 16.1562 17.1719 16.1562Z" fill="#1D2D3E"/>
</svg>
