<svg width="132" height="33" viewBox="0 0 132 33" fill="none" xmlns="http://www.w3.org/2000/svg">
<path d="M35.4129 23.9351H19.916V0.219238H35.4129V4.34914H24.4977V9.91207H33.7616V14.042H24.4977V19.8038H35.4129V23.9337V23.9351Z" fill="#004E97"/>
<path d="M55.9806 23.9351H50.673L46.0913 14.4763H42.794V23.9351H38.2109V0.219238H47.4078C49.7368 0.219238 51.6051 0.929658 53.0127 2.3505C54.3533 3.70503 55.023 5.4141 55.023 7.4804C55.023 9.05686 54.5944 10.4114 53.7373 11.544C52.9685 12.544 51.9681 13.2652 50.7373 13.7091L55.9792 23.9351H55.9806ZM50.4426 7.46416C50.4426 6.53588 50.1346 5.78622 49.5199 5.21112C48.9038 4.63737 48.1029 4.34914 47.1132 4.34914H42.7953V10.5778H47.1132C48.1029 10.5778 48.9038 10.291 49.5199 9.71586C50.1346 9.14211 50.4426 8.39109 50.4426 7.46281V7.46416Z" fill="#004E97"/>
<path d="M73.9693 14.0502C73.9693 17.3005 73.222 19.8485 71.7273 21.4291C70.0131 23.2328 67.8046 24.1341 65.1019 24.1341C62.5961 24.1341 60.4867 23.268 58.7724 21.536C57.7171 20.4697 57.0354 19.1043 56.7287 17.4399C56.5519 16.4629 56.4648 14.6753 56.4648 12.0772C56.4648 9.47912 56.5532 7.69157 56.7287 6.71458C57.0367 5.04881 57.7198 3.68345 58.7765 2.6185C60.4934 0.885078 62.6081 0.019043 65.118 0.019043C67.6278 0.019043 69.7532 0.784943 71.3604 2.31674C72.7479 3.67128 73.6171 5.43718 73.9693 7.61309H69.3421C68.7916 5.30456 67.3814 4.14895 65.1113 4.14895C63.8992 4.14895 62.9189 4.57114 62.1702 5.41417C61.597 6.07994 61.2434 7.14624 61.1122 8.61174C61.068 9.01092 61.0465 10.1665 61.0465 12.0759C61.0465 13.9852 61.068 15.1395 61.1122 15.54C61.2434 17.0285 61.5956 18.1043 62.1675 18.7701C62.8921 19.5914 63.8698 20.0028 65.1019 20.0028C66.4867 20.0028 67.5742 19.559 68.3657 18.6699C69.0689 17.8932 69.4211 16.7051 69.4211 15.3722V14.4724H65.1032V10.5752H73.9706V14.0475L73.9693 14.0502Z" fill="#004E97"/>
<path d="M93.7613 23.9351H88.9814L87.5965 19.7375H79.2568L77.8385 23.9351H73.0586L81.5965 0.219238H85.1898L93.7613 23.9351ZM86.3765 15.8417L83.5077 7.21518L80.5412 15.8417H86.3765Z" fill="#004E97"/>
<path d="M16.952 6.88094C16.6667 5.12722 15.9408 3.66173 14.777 2.48446C13.281 0.974313 11.2158 0.219238 8.57877 0.219238H0.106445V6.89718H4.68948V4.34914H8.1502C9.64484 4.34914 10.7873 4.83764 11.5788 5.81464C11.9966 6.32614 12.2712 7.03656 12.4024 7.9459C12.5122 8.72397 12.5672 10.0663 12.5672 11.9757C12.5672 13.885 12.5122 15.2842 12.4024 16.1056C12.2698 17.0826 11.9953 17.8268 11.5788 18.337C10.7873 19.314 9.64484 19.8025 8.1502 19.8025H4.68948V17.2544H0.106445V23.9324H8.57877C11.2158 23.9324 13.281 23.1773 14.7756 21.6671C15.9395 20.4912 16.6654 18.9919 16.9506 17.1705C17.0832 16.3491 17.1489 14.6171 17.1489 11.9743C17.1489 9.33155 17.0832 7.67797 16.9506 6.87824L16.952 6.88094Z" fill="#004E97"/>
<path d="M4.68948 9.76172H0.106445V14.3909H4.68948V9.76172Z" fill="#4A4A4A"/>
<path d="M97.0037 11.8999C98.0617 12.9364 99.4519 13.571 101.569 13.8714L104.38 14.3058C104.611 14.3383 104.812 14.3721 104.991 14.4087H111.393C111.106 13.4398 110.624 12.6197 109.904 11.9675C108.878 10.931 107.555 10.3965 105.405 10.0961L103.249 9.76318H95.6885C95.9684 10.6049 96.4063 11.3153 97.0037 11.9012V11.8999Z" fill="#004E97"/>
<path d="M99.7854 6.89716C99.855 5.32882 100.985 4.04465 103.388 4.04465C104.943 4.04465 106.762 4.24493 108.218 5.682L111.129 2.77402C109.111 0.768606 106.795 0 103.521 0C98.5251 0 95.4769 2.82544 95.3242 6.8958H99.7867L99.7854 6.89716Z" fill="#4A4A4A"/>
<path d="M107.22 17.272C107.126 19.0568 105.708 20.0541 103.024 20.0541C100.874 20.0541 98.8562 19.5534 97.3669 18.0487L94.3896 21.0568C96.6718 23.4303 99.4173 24.1989 102.991 24.1989C107.845 24.1989 111.559 21.7009 111.716 17.272H107.22Z" fill="#4A4A4A"/>
<path d="M130.513 3.67798C128.825 1.27203 126.609 0.20166 123.401 0.20166H114.899V6.89719H119.497V4.34645H123.003C124.525 4.34645 125.683 4.84713 126.444 5.81736C127.304 6.85389 127.403 8.35728 127.403 12.1002C127.403 15.8431 127.304 17.3478 126.444 18.3843C125.683 19.3532 124.525 19.8552 123.003 19.8552H119.497V17.2734H114.899V24H123.401C126.61 24 128.827 22.931 130.513 20.5237C131.935 18.452 132.001 16.0785 132.001 12.1015C132.001 8.12453 131.935 5.75105 130.513 3.67933V3.67798Z" fill="#4A4A4A"/>
<path d="M119.498 9.76172H114.916V14.3909H119.498V9.76172Z" fill="#004E97"/>
<path d="M0.00170201 31.2435H0.619113C0.69947 32.0338 1.16822 32.4302 2.02536 32.4302C2.47134 32.4302 2.81018 32.3355 3.04054 32.1447C3.27224 31.9539 3.38742 31.6765 3.38742 31.3139C3.38742 30.9851 3.29634 30.7361 3.11286 30.5696C2.92938 30.4018 2.65349 30.2868 2.28117 30.2232L1.61286 30.1109C1.1334 30.0297 0.763756 29.8646 0.506613 29.6129C0.24947 29.3612 0.120898 29.0081 0.120898 28.552C0.120898 28.027 0.295006 27.617 0.64322 27.322C0.991434 27.027 1.45215 26.8809 2.02268 26.8809C2.54902 26.8809 2.97893 27.0175 3.31242 27.2922C3.6459 27.5669 3.84545 27.9837 3.9084 28.5439H3.29099C3.22268 27.7997 2.79679 27.4262 2.01331 27.4262C1.60751 27.4262 1.29143 27.5223 1.06643 27.7158C0.840095 27.9093 0.727595 28.1731 0.727595 28.5087C0.727595 28.8037 0.814648 29.0324 0.988756 29.1975C1.16286 29.3626 1.4267 29.4763 1.78161 29.5399L2.46733 29.6616C2.9642 29.7482 3.34456 29.9215 3.60706 30.1813C3.86956 30.4411 4.00081 30.8078 4.00081 31.2814C4.00081 31.824 3.82134 32.2435 3.46108 32.5412C3.10081 32.8389 2.60661 32.9878 1.97849 32.9878C1.38384 32.9878 0.919113 32.8403 0.581613 32.5466C0.244113 32.2516 0.0499163 31.8186 -0.000976562 31.2476L0.00170201 31.2435Z" fill="#4A4A4A"/>
<path d="M6.84118 30.7157V29.1649C6.84118 28.3747 7.02734 27.7955 7.39833 27.4288C7.76931 27.0621 8.2702 26.8794 8.89833 26.8794C9.52645 26.8794 10.0166 27.0621 10.3849 27.4288C10.7532 27.7955 10.9381 28.3747 10.9381 29.1649V30.7157C10.9381 31.5059 10.7519 32.0851 10.3809 32.4518C10.0099 32.8185 9.51306 33.0012 8.88895 33.0012C8.26484 33.0012 7.76127 32.8185 7.39297 32.4518C7.02466 32.0851 6.83984 31.5059 6.83984 30.7157H6.84118ZM10.3126 29.192C10.3126 28.031 9.84118 27.4518 8.89833 27.4518C8.42422 27.4518 8.06663 27.5885 7.8269 27.8632C7.58716 28.1379 7.46663 28.5803 7.46663 29.192V30.7508C7.46663 31.3341 7.5885 31.7576 7.83091 32.0242C8.07333 32.2894 8.42958 32.422 8.89833 32.422C9.84118 32.422 10.3126 31.8645 10.3126 30.7508V29.192Z" fill="#4A4A4A"/>
<path d="M14.6919 29.625H17.2285V30.1961H14.6919V32.9322H14.0664V26.9565H17.657V27.5276H14.6919V29.6237V29.625Z" fill="#4A4A4A"/>
<path d="M22.2525 27.529V32.9323H21.6351V27.529H19.9463V26.958H23.94V27.529H22.2512H22.2525Z" fill="#4A4A4A"/>
<path d="M31.3387 32.9322H30.7816L29.4704 27.7454L28.1927 32.9322H27.6356L26.1182 26.9565H26.7262L27.9262 31.9105L29.0833 26.9565H29.8802L31.0802 31.9105L32.2374 26.9565H32.8199L31.3374 32.9322H31.3387Z" fill="#4A4A4A"/>
<path d="M35.8124 31.4951L35.3155 32.9322H34.6553L36.8062 26.9565H37.3285L39.4794 32.9322H38.8191L38.3222 31.4951H35.8111H35.8124ZM37.0633 27.8402L35.9919 30.9579H38.1428L37.0633 27.8402Z" fill="#4A4A4A"/>
<path d="M42.7299 30.3084V32.9322H42.1045V26.9565H44.2982C44.8527 26.9565 45.288 27.1027 45.6054 27.3936C45.9228 27.6846 46.0808 28.1 46.0808 28.6358C46.0808 29.0634 45.9697 29.4153 45.746 29.6927C45.5237 29.9701 45.2116 30.1541 44.8112 30.2475L46.2081 32.9322H45.4875L44.1509 30.3084H42.7286H42.7299ZM44.2473 29.763C44.6304 29.763 44.9277 29.667 45.1393 29.4735C45.3509 29.28 45.4567 29.0039 45.4567 28.6467C45.4567 28.2894 45.3523 27.9985 45.1433 27.8104C44.9344 27.6223 44.6357 27.5289 44.2473 27.5289H42.7299V29.763H44.2473Z" fill="#4A4A4A"/>
<path d="M49.7417 29.6074H52.2783V30.1785H49.7417V32.3611H52.7068V32.9322H49.1162V26.9565H52.7068V27.5276H49.7417V29.6061V29.6074Z" fill="#4A4A4A"/>
<path d="M61.4413 26.9564C62.0694 26.9564 62.5689 27.1391 62.9373 27.5058C63.3056 27.8725 63.4904 28.4517 63.4904 29.242V30.6452C63.4904 31.4355 63.3056 32.0146 62.9373 32.3813C62.5689 32.748 62.0707 32.9307 61.4413 32.9307H59.4189V26.9551H61.4413V26.9564ZM62.8556 30.6804V29.269C62.8556 28.6628 62.7337 28.2217 62.4913 27.9443C62.2489 27.6669 61.9006 27.5288 61.4493 27.5288H60.0524V32.361H61.4493C62.3868 32.361 62.8556 31.8008 62.8556 30.6804Z" fill="#4A4A4A"/>
<path d="M67.2436 29.6074H69.7802V30.1785H67.2436V32.3611H70.2088V32.9322H66.6182V26.9565H70.2088V27.5276H67.2436V29.6061V29.6074Z" fill="#4A4A4A"/>
<path d="M73.2095 26.9565L74.7443 31.9105L76.2697 26.9565H76.9206L74.9921 32.9322H74.4778L72.5586 26.9565H73.2095Z" fill="#4A4A4A"/>
<path d="M80.1704 29.6074H82.707V30.1785H80.1704V32.3611H83.1355V32.9322H79.5449V26.9565H83.1355V27.5276H80.1704V29.6061V29.6074Z" fill="#4A4A4A"/>
<path d="M86.7352 26.9564V32.3597H89.683V32.9307H86.1084V26.9551H86.7338L86.7352 26.9564Z" fill="#4A4A4A"/>
<path d="M92.0668 30.7157V29.1649C92.0668 28.3747 92.2529 27.7955 92.6239 27.4288C92.9949 27.0621 93.4958 26.8794 94.1239 26.8794C94.752 26.8794 95.2422 27.0621 95.6105 27.4288C95.9788 27.7955 96.1636 28.3747 96.1636 29.1649V30.7157C96.1636 31.5059 95.9775 32.0851 95.6065 32.4518C95.2355 32.8185 94.7387 33.0012 94.1145 33.0012C93.4904 33.0012 92.9869 32.8185 92.6186 32.4518C92.2503 32.0851 92.0654 31.5059 92.0654 30.7157H92.0668ZM95.5382 29.192C95.5382 28.031 95.0668 27.4518 94.1239 27.4518C93.6498 27.4518 93.2922 27.5885 93.0525 27.8632C92.8128 28.1379 92.6922 28.5803 92.6922 29.192V30.7508C92.6922 31.3341 92.8141 31.7576 93.0565 32.0242C93.2989 32.2894 93.6552 32.422 94.1239 32.422C95.0668 32.422 95.5382 31.8645 95.5382 30.7508V29.192Z" fill="#4A4A4A"/>
<path d="M103.278 28.7414C103.278 29.2786 103.111 29.6994 102.777 30.0053C102.443 30.3111 101.99 30.464 101.419 30.464H99.9194V32.9322H99.2939V26.9565H101.419C101.997 26.9565 102.451 27.1108 102.783 27.4193C103.114 27.7279 103.28 28.169 103.28 28.74L103.278 28.7414ZM102.653 28.7414C102.653 28.3314 102.542 28.0269 102.318 27.828C102.096 27.6291 101.778 27.5289 101.367 27.5289H99.918V29.8929H101.367C101.778 29.8929 102.096 29.7982 102.318 29.6074C102.54 29.4166 102.653 29.1284 102.653 28.7414Z" fill="#4A4A4A"/>
<path d="M111.197 32.9322H110.572V28.2556L108.901 31.7373H108.421L106.742 28.2556V32.9322H106.116V26.9565H106.742L108.661 30.9836L110.572 26.9565H111.197V32.9322Z" fill="#4A4A4A"/>
<path d="M115.072 29.6074H117.608V30.1785H115.072V32.3611H118.037V32.9322H114.446V26.9565H118.037V27.5276H115.072V29.6061V29.6074Z" fill="#4A4A4A"/>
<path d="M125.323 32.9322H124.697L121.637 28.1176V32.9322H121.012V26.9565H121.637L124.697 31.7536V26.9565H125.323V32.9322Z" fill="#4A4A4A"/>
<path d="M130.26 27.529V32.9323H129.643V27.529H127.954V26.958H131.948V27.529H130.259H130.26Z" fill="#4A4A4A"/>
</svg>
