<svg width="68" height="36" viewBox="0 0 68 36" fill="none" xmlns="http://www.w3.org/2000/svg">
<path d="M4 3L64 3L35.25 33H4V3Z" fill="url(#paint0_linear_2376_2806)"/>
<path d="M5.82327 16.6298C5.33617 15.696 5.19591 14.6966 5.26757 13.6584C5.37276 12.6957 5.74246 11.8366 6.29511 11.0514C6.36601 10.9508 6.45824 10.8647 6.54057 10.7717C7.60242 9.67857 8.92573 9.08018 10.3847 8.73792C11.7042 8.50009 13.0268 8.50085 14.3531 8.67618C15.9013 8.92925 17.416 9.29591 18.8307 9.99949C18.9184 10.0429 18.9992 10.1001 19.0831 10.1512C18.6326 10.9394 18.1828 11.7276 17.7323 12.5158C17.5814 12.7643 17.4 13.0006 17.2879 13.2651C17.14 13.6157 16.9639 13.6112 16.6522 13.4587C15.1672 12.7292 13.5962 12.393 11.939 12.515C11.4275 12.5524 10.9343 12.6736 10.5296 13.0143C10.0714 13.4 10.0455 13.868 10.4549 14.2972C10.5768 14.4245 10.7133 14.5434 10.8611 14.6395C11.6318 15.1395 12.4718 15.4848 13.3561 15.7249C13.4841 15.7745 13.6114 15.8286 13.741 15.8736C14.6946 16.2014 15.6543 16.5131 16.5424 17.0033C17.7422 17.6665 18.7164 18.5294 19.1257 19.8999C19.1677 20.0402 19.1402 20.2094 19.2957 20.3367C19.8774 18.7672 20.4552 17.2083 21.0322 15.6502C21.3783 14.7408 21.7228 13.8314 22.0719 12.9236C22.123 12.7909 22.155 12.6591 22.1489 12.518C22.232 12.4944 22.261 12.4243 22.2869 12.3526C22.5552 11.6231 22.8235 10.8936 23.0919 10.1641C23.1841 9.92936 23.2763 9.69534 23.3678 9.46056C23.6011 8.8576 23.6003 8.8576 24.2688 8.8576C25.6257 8.8576 26.9825 8.86217 28.3394 8.85303C28.5612 8.8515 28.6839 8.90486 28.7518 9.13049C28.8501 9.45675 28.9873 9.77081 29.1078 10.0902C29.4271 10.9493 29.7473 11.8084 30.0667 12.6682C30.5279 14.0434 31.0363 15.4017 31.5615 16.7533C32.2582 18.6742 32.9542 20.5944 33.6509 22.5153C33.6723 22.5069 33.6936 22.4985 33.7157 22.4894C33.7157 20.5364 33.7157 18.5827 33.7157 16.6298C33.7157 15.3087 33.7157 13.9885 33.7157 12.6675C33.7157 11.8038 33.7157 10.9401 33.7157 10.0765C33.7203 9.76013 33.7332 9.44303 33.7271 9.12668C33.7233 8.94679 33.7515 8.8515 33.9696 8.85303C36.1375 8.86598 38.3061 8.82482 40.4718 8.88961C42.0314 8.93611 43.575 9.16327 44.9875 9.92021C45.3313 10.1047 45.627 10.3555 45.9632 10.5476C46.7522 11.2748 47.2682 12.1636 47.5373 13.1995C47.7576 14.2073 47.8056 15.2234 47.6867 16.2471C47.4916 17.4111 47.0548 18.4638 46.2574 19.3503C45.0607 20.5357 43.5849 21.0982 41.9407 21.288C41.8919 21.2934 41.8461 21.3185 41.7989 21.3338C40.8361 21.346 39.8741 21.3612 38.9114 21.3665C38.7208 21.3673 38.6057 21.3864 38.6095 21.6272C38.6263 22.6022 38.6255 23.5764 38.6316 24.5513C38.6255 25.2488 38.6088 25.9463 38.6202 26.6438C38.624 26.9014 38.56 26.9906 38.2856 26.9891C35.594 26.9792 32.9031 26.9777 30.2115 26.9914C29.9767 26.9929 29.9051 26.8908 29.8533 26.7177C29.6429 26.0126 29.431 25.3083 29.2305 24.6001C29.168 24.3798 29.1017 24.3074 28.841 24.3814C26.9909 24.9073 25.134 24.8989 23.2863 24.3653C23.0484 24.2967 22.9577 24.3257 22.8807 24.5704C22.6505 25.3022 22.383 26.0218 22.1497 26.7528C22.0979 26.9159 22.0361 26.9845 21.8684 26.9845C20.1945 26.9815 18.5205 26.983 16.8084 26.983C16.9731 26.5188 17.1271 26.0858 17.278 25.662C17.1438 25.5896 17.0905 25.6604 17.0341 25.7031C15.2702 27.0432 13.244 27.3893 11.0975 27.2605C9.55232 27.1682 8.07046 26.8046 6.63814 26.2169C6.23185 26.0507 5.85528 25.832 5.465 25.6391C5.35675 25.5857 5.25766 25.5362 5.2973 25.3883C5.87586 24.3684 6.36143 23.3012 6.87368 22.2477C6.99336 22.0023 7.07797 21.9527 7.32419 22.1044C8.75803 22.9871 10.3169 23.4125 12.0068 23.3248C12.4901 23.2997 12.9696 23.2448 13.4011 23.0039C14.1023 22.6129 14.3318 21.8224 13.9171 21.253C13.6465 20.8528 13.2234 20.6668 12.7981 20.512C11.7881 20.1439 10.7674 19.8077 9.75432 19.4487C9.40901 19.3259 9.0759 19.1712 8.73669 19.0309C8.06741 18.6734 7.4027 18.3106 6.82718 17.8067C6.43461 17.4652 6.1175 17.0574 5.82327 16.6298ZM25.0471 17.8494C24.7956 18.6185 24.5478 19.3892 24.2902 20.1568C24.2246 20.3527 24.2993 20.4236 24.4777 20.4785C25.5517 20.8093 26.6227 20.8009 27.6975 20.4815C27.8652 20.432 27.9178 20.3703 27.8591 20.1904C27.6106 19.4334 27.3766 18.6719 27.1365 17.9119C26.8003 16.8097 26.4634 15.7074 26.1273 14.6052C26.0991 14.6105 26.0708 14.6158 26.0419 14.6212C25.7103 15.6975 25.3787 16.7731 25.0471 17.8494ZM38.6293 14.192C38.624 15.1677 38.6225 16.1434 38.6088 17.1191C38.6057 17.3227 38.6812 17.3798 38.8748 17.3776C39.5082 17.3699 40.144 17.3959 40.7736 17.3097C42.3637 17.0917 43.3242 16.0863 42.8501 14.192C42.6115 13.4008 42.0062 13.0303 41.2653 12.8275C40.4603 12.6072 39.634 12.6835 38.8146 12.6682C38.6347 12.6652 38.6088 12.7574 38.6118 12.9038C38.621 13.3337 38.624 13.7628 38.6293 14.192Z" fill="white"/>
<defs>
<linearGradient id="paint0_linear_2376_2806" x1="19.625" y1="3" x2="19.625" y2="33" gradientUnits="userSpaceOnUse">
<stop stop-color="#2BA7E7"/>
<stop offset="0.489583" stop-color="#145FAD"/>
<stop offset="1" stop-color="#274494"/>
</linearGradient>
</defs>
</svg>
