<svg width="124" height="98" viewBox="0 0 124 98" fill="none" xmlns="http://www.w3.org/2000/svg">
<g clip-path="url(#clip0_1777_132439)">
<path d="M90.5838 19.5171C90.6263 19.1244 90.547 18.7282 90.3564 18.3823C90.1659 18.0363 89.8735 17.7574 89.519 17.5834L53.9432 0.19561C53.717 0.0849286 53.4712 0.0198897 53.2198 0.00420911C52.9684 -0.0114715 52.7164 0.022512 52.4782 0.10422C52.24 0.185927 52.0202 0.31376 51.8313 0.480417C51.6425 0.647074 51.4883 0.849291 51.3776 1.07552L51.377 1.07686L38.0338 28.3772C37.8111 28.8345 37.7788 29.3614 37.944 29.8425C38.1092 30.3235 38.4584 30.7194 38.915 30.9434L74.4908 48.3313C74.9481 48.554 75.475 48.5863 75.956 48.4211C76.4371 48.2559 76.833 47.9067 77.057 47.45L90.4002 20.1497C90.4977 19.9511 90.5598 19.737 90.5838 19.5171Z" fill="#F2F2F2"/>
<path d="M69.742 80.11H23.5807C22.9995 80.1094 22.4424 79.8782 22.0314 79.4673C21.6205 79.0564 21.3893 78.4992 21.3887 77.918V15.2521C21.3893 14.6709 21.6205 14.1138 22.0314 13.7028C22.4424 13.2919 22.9995 13.0607 23.5807 13.0601H69.742C70.3232 13.0607 70.8804 13.2919 71.2913 13.7028C71.7022 14.1138 71.9334 14.6709 71.934 15.2521V77.918C71.9334 78.4992 71.7022 79.0564 71.2913 79.4673C70.8804 79.8782 70.3232 80.1094 69.742 80.11Z" fill="white"/>
<path d="M35.8232 31.7474C37.4865 31.7474 38.8348 30.3991 38.8348 28.7358C38.8348 27.0725 37.4865 25.7241 35.8232 25.7241C34.1599 25.7241 32.8115 27.0725 32.8115 28.7358C32.8115 30.3991 34.1599 31.7474 35.8232 31.7474Z" fill="#E6E6E6"/>
<path d="M31.2334 36.9666C31.659 37.2085 32.1043 37.4137 32.5647 37.5801L32.646 37.6083C33.5733 37.9338 34.5491 38.0996 35.5319 38.0984C35.7297 38.0984 35.9201 38.0915 36.0981 38.0781C36.5312 38.0515 36.9616 37.9922 37.3857 37.9005C37.6184 37.8497 37.8504 37.7888 38.0749 37.72C38.1292 37.7039 38.1794 37.6882 38.2345 37.671C39.1493 37.3744 40.009 36.9289 40.7788 36.3525C40.717 36.2356 40.6494 36.122 40.5761 36.0119C40.1803 35.4071 39.6398 34.9105 39.0037 34.5671C38.3676 34.2238 37.656 34.0445 36.9331 34.0454H35.348C34.512 34.0456 33.6936 34.286 32.9903 34.7381C32.287 35.1902 31.7285 35.8349 31.3813 36.5955C31.3258 36.7166 31.2764 36.8405 31.2334 36.9666Z" fill="#E6E6E6"/>
<path d="M36.8447 37.8259C36.7435 37.8334 36.6461 37.8675 36.5625 37.9249C36.9875 37.8984 37.4098 37.8398 37.8259 37.7495L36.8447 37.8259Z" fill="#2F2E41"/>
<path d="M36.0069 20.5625C34.0672 20.5627 32.1819 21.2032 30.6435 22.3846C29.1051 23.5659 27.9997 25.2221 27.4988 27.096C26.998 28.9699 27.1298 30.9567 27.8737 32.7481C28.6176 34.5394 29.9321 36.0351 31.613 37.0029C32.0593 37.2613 32.5277 37.4793 33.0127 37.6544L33.0951 37.6829C34.0307 38.0114 35.0153 38.1786 36.0069 38.1775C36.1987 38.1775 36.3905 38.1711 36.5791 38.1569C37.0157 38.13 37.4497 38.0701 37.8773 37.9777C38.1167 37.9254 38.3512 37.8636 38.5731 37.7955C38.627 37.7796 38.6777 37.7638 38.7332 37.7463C40.7267 37.097 42.4233 35.7579 43.5179 33.9697C44.6125 32.1815 45.0333 30.0614 44.7048 27.9907C44.3763 25.92 43.3199 24.0344 41.7256 22.6728C40.1313 21.3112 38.1035 20.5629 36.0069 20.5625ZM41.1172 35.9679C40.3573 36.5542 39.5021 37.0051 38.589 37.3009C38.5399 37.3168 38.4891 37.3326 38.4384 37.3485C38.2276 37.4135 38.0057 37.4705 37.7774 37.5196C37.3729 37.6079 36.9622 37.6652 36.549 37.6908C36.3699 37.7035 36.1875 37.7099 36.0069 37.7099C35.0683 37.7104 34.1363 37.5523 33.2504 37.2423L33.1728 37.2153C32.6904 37.0419 32.2254 36.8233 31.7842 36.5623C30.2476 35.6576 29.0417 34.2839 28.3436 32.6431C27.6456 31.0023 27.4922 29.1808 27.9061 27.4463C28.32 25.7119 29.2793 24.1559 30.643 23.0071C32.0067 21.8582 33.703 21.1771 35.4825 21.0638C37.2621 20.9504 39.0311 21.4109 40.5295 22.3774C42.028 23.344 43.1769 24.7657 43.8075 26.4336C44.4381 28.1015 44.517 29.9277 44.0328 31.6439C43.5485 33.36 42.5266 34.8756 41.1172 35.9679Z" fill="#CCCCCC"/>
<path d="M69.742 80.11H23.5807C22.9995 80.1094 22.4424 79.8782 22.0314 79.4673C21.6205 79.0564 21.3893 78.4992 21.3887 77.918V15.2521C21.3893 14.6709 21.6205 14.1138 22.0314 13.7028C22.4424 13.2919 22.9995 13.0607 23.5807 13.0601H69.742C70.3232 13.0607 70.8804 13.2919 71.2913 13.7028C71.7022 14.1138 71.9334 14.6709 71.934 15.2521V77.918C71.9334 78.4992 71.7022 79.0564 71.2913 79.4673C70.8804 79.8782 70.3232 80.1094 69.742 80.11ZM23.5807 13.3179C23.0679 13.3185 22.5763 13.5225 22.2137 13.8851C21.8511 14.2477 21.6471 14.7393 21.6466 15.2521V77.918C21.6471 78.4308 21.8511 78.9224 22.2137 79.285C22.5763 79.6476 23.0679 79.8516 23.5807 79.8522H69.742C70.2548 79.8516 70.7464 79.6476 71.109 79.285C71.4716 78.9224 71.6756 78.4308 71.6762 77.918V15.2521C71.6756 14.7393 71.4716 14.2477 71.109 13.8851C70.7464 13.5225 70.2548 13.3185 69.742 13.3179L23.5807 13.3179Z" fill="#CCCCCC"/>
<path d="M60.8044 29.3362H47.7423C47.4683 29.3362 47.2054 29.2274 47.0116 29.0336C46.8179 28.8398 46.709 28.577 46.709 28.3029C46.709 28.0288 46.8179 27.766 47.0116 27.5722C47.2054 27.3784 47.4683 27.2695 47.7423 27.2695H60.8044C61.0785 27.2695 61.3413 27.3784 61.5351 27.5722C61.7289 27.766 61.8378 28.0288 61.8378 28.3029C61.8378 28.577 61.7289 28.8398 61.5351 29.0336C61.3413 29.2274 61.0785 29.3362 60.8044 29.3362Z" fill="#E6E6E6"/>
<path d="M65.067 32.8236H47.7423C47.4683 32.8236 47.2054 32.7147 47.0116 32.5209C46.8179 32.3271 46.709 32.0643 46.709 31.7902C46.709 31.5161 46.8179 31.2533 47.0116 31.0595C47.2054 30.8657 47.4683 30.7568 47.7423 30.7568H65.067C65.3411 30.7568 65.6039 30.8657 65.7977 31.0595C65.9915 31.2533 66.1004 31.5161 66.1004 31.7902C66.1004 32.0643 65.9915 32.3271 65.7977 32.5209C65.6039 32.7147 65.3411 32.8236 65.067 32.8236Z" fill="#E6E6E6"/>
<path d="M60.7864 46.2H28.2541C27.98 46.2 27.7172 46.0911 27.5234 45.8974C27.3296 45.7036 27.2207 45.4407 27.2207 45.1667C27.2207 44.8926 27.3296 44.6298 27.5234 44.436C27.7172 44.2422 27.98 44.1333 28.2541 44.1333H60.7864C61.0605 44.1333 61.3233 44.2422 61.5171 44.436C61.7109 44.6298 61.8198 44.8926 61.8198 45.1667C61.8198 45.4407 61.7109 45.7036 61.5171 45.8974C61.3233 46.0911 61.0605 46.2 60.7864 46.2Z" fill="#E6E6E6"/>
<path d="M65.049 49.6878H28.2541C27.98 49.6878 27.7172 49.5789 27.5234 49.3851C27.3296 49.1914 27.2207 48.9285 27.2207 48.6545C27.2207 48.3804 27.3296 48.1175 27.5234 47.9238C27.7172 47.73 27.98 47.6211 28.2541 47.6211H65.049C65.3231 47.6211 65.5859 47.73 65.7797 47.9238C65.9735 48.1175 66.0824 48.3804 66.0824 48.6545C66.0824 48.9285 65.9735 49.1914 65.7797 49.3851C65.5859 49.5789 65.3231 49.6878 65.049 49.6878Z" fill="#E6E6E6"/>
<path d="M60.7864 57.7034H28.2541C27.98 57.7034 27.7172 57.5946 27.5234 57.4008C27.3296 57.207 27.2207 56.9441 27.2207 56.6701C27.2207 56.396 27.3296 56.1332 27.5234 55.9394C27.7172 55.7456 27.98 55.6367 28.2541 55.6367H60.7864C61.0605 55.6367 61.3233 55.7456 61.5171 55.9394C61.7109 56.1332 61.8198 56.396 61.8198 56.6701C61.8198 56.9441 61.7109 57.207 61.5171 57.4008C61.3233 57.5946 61.0605 57.7034 60.7864 57.7034Z" fill="#E6E6E6"/>
<path d="M65.049 61.1912H28.2541C27.98 61.1912 27.7172 61.0824 27.5234 60.8886C27.3296 60.6948 27.2207 60.4319 27.2207 60.1579C27.2207 59.8838 27.3296 59.621 27.5234 59.4272C27.7172 59.2334 27.98 59.1245 28.2541 59.1245H65.049C65.3231 59.1245 65.5859 59.2334 65.7797 59.4272C65.9735 59.621 66.0824 59.8838 66.0824 60.1579C66.0824 60.4319 65.9735 60.6948 65.7797 60.8886C65.5859 61.0824 65.3231 61.1912 65.049 61.1912Z" fill="#E6E6E6"/>
<path d="M60.7864 69.2069H28.2541C27.98 69.2069 27.7172 69.098 27.5234 68.9042C27.3296 68.7104 27.2207 68.4476 27.2207 68.1735C27.2207 67.8994 27.3296 67.6366 27.5234 67.4428C27.7172 67.249 27.98 67.1401 28.2541 67.1401H60.7864C61.0605 67.1401 61.3233 67.249 61.5171 67.4428C61.7109 67.6366 61.8198 67.8994 61.8198 68.1735C61.8198 68.4476 61.7109 68.7104 61.5171 68.9042C61.3233 69.098 61.0605 69.2069 60.7864 69.2069Z" fill="#E6E6E6"/>
<path d="M65.049 72.6942H28.2541C27.98 72.6942 27.7172 72.5853 27.5234 72.3915C27.3296 72.1977 27.2207 71.9349 27.2207 71.6608C27.2207 71.3867 27.3296 71.1239 27.5234 70.9301C27.7172 70.7363 27.98 70.6274 28.2541 70.6274H65.049C65.3229 70.6278 65.5854 70.7368 65.7789 70.9306C65.9724 71.1243 66.0811 71.387 66.0811 71.6608C66.0811 71.9346 65.9724 72.1973 65.7789 72.391C65.5854 72.5848 65.3229 72.6938 65.049 72.6942Z" fill="#E6E6E6"/>
<path d="M88.9978 37.4287C89.0404 37.0361 88.961 36.6398 88.7705 36.2939C88.58 35.9479 88.2876 35.669 87.933 35.4951L52.3573 18.1072C52.131 17.9965 51.8852 17.9315 51.6339 17.9158C51.3825 17.9001 51.1305 17.9341 50.8923 18.0158C50.654 18.0975 50.4342 18.2254 50.2454 18.392C50.0566 18.5587 49.9024 18.7609 49.7917 18.9871L49.7911 18.9885L36.4479 46.2888C36.2252 46.7461 36.1929 47.273 36.3581 47.7541C36.5233 48.2351 36.8725 48.6311 37.3291 48.8551L72.9048 66.2429C73.3621 66.4656 73.889 66.4979 74.3701 66.3327C74.8512 66.1675 75.2471 65.8183 75.4711 65.3616L88.8143 38.0613C88.9117 37.8627 88.9739 37.6486 88.9978 37.4287Z" fill="white"/>
<path d="M88.9978 37.4287C89.0404 37.0361 88.961 36.6398 88.7705 36.2939C88.58 35.9479 88.2876 35.669 87.933 35.4951L52.3573 18.1072C52.131 17.9965 51.8852 17.9315 51.6339 17.9158C51.3825 17.9001 51.1305 17.9341 50.8923 18.0158C50.654 18.0975 50.4342 18.2254 50.2454 18.392C50.0566 18.5587 49.9024 18.7609 49.7917 18.9871L49.7911 18.9885L36.4479 46.2888C36.2252 46.7461 36.1929 47.273 36.3581 47.7541C36.5233 48.2351 36.8725 48.6311 37.3291 48.8551L72.9048 66.2429C73.3621 66.4656 73.889 66.4979 74.3701 66.3327C74.8512 66.1675 75.2471 65.8183 75.4711 65.3616L88.8143 38.0613C88.9117 37.8627 88.9739 37.6486 88.9978 37.4287ZM75.2683 65.2625C75.0707 65.6655 74.7214 65.9737 74.2969 66.1195C73.8724 66.2652 73.4074 66.2367 73.004 66.0401L37.4282 48.6523C37.0252 48.4547 36.7171 48.1054 36.5713 47.6809C36.4255 47.2564 36.4541 46.7914 36.6507 46.3879L49.9939 19.0876C50.1914 18.6846 50.5408 18.3764 50.9652 18.2307C51.3897 18.0849 51.8547 18.1134 52.2582 18.31L87.8339 35.6979C88.2369 35.8954 88.5451 36.2448 88.6908 36.6693C88.8366 37.0937 88.8081 37.5587 88.6115 37.9622L75.2683 65.2625Z" fill="#3F3D56"/>
<path d="M85.1166 38.6697L75.7995 57.7327C75.7374 57.86 75.6272 57.9573 75.4933 58.0034C75.3593 58.0494 75.2126 58.0404 75.0853 57.9782L42.7244 42.1617C42.7013 42.1506 42.6791 42.1375 42.6582 42.1227C42.5521 42.0505 42.4756 41.9424 42.4426 41.8183C42.4097 41.6943 42.4226 41.5625 42.479 41.4471L51.7962 22.3842C51.8269 22.3211 51.8698 22.2648 51.9223 22.2184C51.9749 22.1719 52.0361 22.1363 52.1024 22.1135C52.1687 22.0907 52.2389 22.0812 52.3089 22.0855C52.3789 22.0898 52.4473 22.1079 52.5103 22.1386L84.8713 37.9552C84.9985 38.0174 85.0959 38.1275 85.1419 38.2615C85.188 38.3954 85.179 38.5421 85.1168 38.6694L85.1166 38.6697Z" fill="#E6E6E6"/>
<path d="M56.7071 37.7022C59.2954 37.7022 61.3936 35.604 61.3936 33.0156C61.3936 30.4273 59.2954 28.3291 56.7071 28.3291C54.1187 28.3291 52.0205 30.4273 52.0205 33.0156C52.0205 35.604 54.1187 37.7022 56.7071 37.7022Z" fill="#536DFE"/>
<path d="M63.5687 52.4442L42.9131 42.3487C42.887 42.3364 42.8622 42.3217 42.8389 42.3048L60.8786 30.158C60.9897 30.0817 61.1191 30.0363 61.2535 30.0265C61.3879 30.0166 61.5225 30.0426 61.6436 30.1017C61.7647 30.1609 61.8679 30.2512 61.9427 30.3633C62.0175 30.4754 62.0611 30.6054 62.0693 30.7399L63.0754 45.3001L63.1239 45.997L63.5687 52.4442Z" fill="#3F3D56"/>
<path opacity="0.2" d="M63.5689 52.4444L56.5166 48.9975L62.4364 45.6609L62.8626 45.4206L63.0756 45.3003L63.1242 45.9971L63.5689 52.4444Z" fill="black"/>
<path d="M75.0695 58.0656L57.2041 49.3338L63.1238 45.9972L63.55 45.7567L71.2643 41.4084C71.7699 41.1234 72.4945 41.4444 72.6588 41.9896C72.6697 42.0266 72.6781 42.0643 72.6842 42.1024L75.0695 58.0656Z" fill="#3F3D56"/>
<path d="M19.9468 59.7296L21.8899 59.7294L22.8145 52.2339L19.9463 52.234L19.9468 59.7296Z" fill="#FFB8B8"/>
<path d="M19.4521 59.0949L23.2791 59.0947C23.5994 59.0947 23.9167 59.1578 24.2126 59.2804C24.5085 59.4029 24.7774 59.5825 25.0038 59.809C25.2303 60.0355 25.41 60.3043 25.5325 60.6002C25.6551 60.8961 25.7182 61.2133 25.7182 61.5336V61.6128L19.4523 61.613L19.4521 59.0949Z" fill="#2F2E41"/>
<path d="M4.8418 58.4918L6.85516 58.8856L9.33232 51.3073L6.36093 50.7261L4.8418 58.4918Z" fill="#FFB8B8"/>
<path d="M4.45759 57.7344L8.42256 58.51L8.42272 58.51C8.75454 58.5749 9.07033 58.7045 9.35206 58.8915C9.63378 59.0785 9.87592 59.3191 10.0646 59.5996C10.2534 59.8802 10.385 60.1951 10.452 60.5265C10.519 60.8579 10.5201 61.1993 10.4551 61.5311L10.4391 61.6132L3.94727 60.3433L4.45759 57.7344Z" fill="#2F2E41"/>
<path d="M83.4487 94.1993H5.23075C3.84395 94.1978 2.5144 93.6462 1.53378 92.6655C0.553165 91.6849 0.00156653 90.3554 0 88.9686V46.013C0.00156653 44.6262 0.553165 43.2966 1.53378 42.316C2.5144 41.3354 3.84395 40.7838 5.23075 40.7822H14.8209C16.1221 40.7811 17.3768 41.2661 18.339 42.1422L28.7389 49.5684C29.417 50.188 30.3025 50.5312 31.221 50.5305H83.9344C84.6277 50.5305 85.3141 50.6683 85.9537 50.936C86.5933 51.2036 87.1733 51.5958 87.66 52.0896C88.1467 52.5835 88.5303 53.1692 88.7886 53.8126C89.0469 54.456 89.1747 55.1444 89.1646 55.8377L88.6789 89.045C88.6532 90.4171 88.0916 91.7247 87.1141 92.6879C86.1366 93.6512 84.821 94.1937 83.4487 94.1993Z" fill="white"/>
<path d="M82.7536 91.6632H5.69327C5.02427 91.6624 4.38289 91.3963 3.90983 90.9233C3.43677 90.4502 3.17068 89.8088 3.16992 89.1398V45.4819C3.17068 44.8129 3.43677 44.1715 3.90983 43.6984C4.38289 43.2254 5.02427 42.9593 5.69327 42.9585C6.285 42.9592 6.8523 43.1945 7.27072 43.6129C7.68913 44.0313 7.92449 44.5986 7.92515 45.1904V86.1282C7.92586 86.7551 8.17525 87.3562 8.61859 87.7996C9.06193 88.2429 9.66302 88.4923 10.29 88.493H82.4933C82.852 88.489 83.2017 88.6053 83.4866 88.8233C83.7715 89.0413 83.9751 89.3484 84.065 89.6957C84.1657 90.025 84.1531 90.3785 84.0294 90.6998C83.9057 91.0212 83.6778 91.2918 83.3823 91.4685C83.1949 91.5905 82.9772 91.6579 82.7536 91.6632Z" fill="#F2F2F2"/>
<path d="M44.924 70.6964L44.7211 70.4935C44.679 70.4542 44.6544 70.3997 44.6525 70.3422C44.6506 70.2846 44.6716 70.2286 44.711 70.1866C44.7142 70.1831 44.7176 70.1798 44.7211 70.1765L46.5011 68.3949C46.5206 68.3741 46.544 68.3573 46.57 68.3455C46.5959 68.3338 46.624 68.3272 46.6525 68.3263C46.681 68.3254 46.7094 68.33 46.7361 68.3401C46.7628 68.3501 46.7872 68.3653 46.808 68.3848C46.8115 68.3881 46.8149 68.3914 46.8181 68.3949L48.5982 70.1749C48.619 70.195 48.6356 70.219 48.6472 70.2456C48.6587 70.2721 48.6649 70.3006 48.6654 70.3296C48.6659 70.3585 48.6607 70.3873 48.6501 70.4142C48.6395 70.4411 48.6237 70.4657 48.6036 70.4865L48.5982 70.492L48.3953 70.6948C48.3752 70.7157 48.3512 70.7323 48.3246 70.7439C48.2981 70.7554 48.2696 70.7616 48.2406 70.7621C48.2117 70.7626 48.183 70.7574 48.156 70.7468C48.1291 70.7362 48.1046 70.7204 48.0837 70.7003L48.0783 70.6948L47.0258 69.5853V72.2181C47.026 72.2468 47.0205 72.2753 47.0097 72.3019C46.9989 72.3285 46.983 72.3528 46.9628 72.3732C46.9427 72.3937 46.9187 72.41 46.8922 72.4212C46.8658 72.4324 46.8373 72.4382 46.8086 72.4384L46.807 72.4384H46.5138C46.4554 72.4384 46.3993 72.4152 46.358 72.3739C46.3167 72.3326 46.2935 72.2765 46.2935 72.2181V69.5885L45.241 70.698C45.2002 70.7399 45.1444 70.7638 45.086 70.7645C45.0276 70.7652 44.9712 70.7427 44.9294 70.7019L44.924 70.6964Z" fill="#536DFE"/>
<path d="M46.6563 66.7773C47.3707 66.7773 48.0692 66.9891 48.6632 67.3861C49.2573 67.783 49.7203 68.3472 49.9937 69.0073C50.2671 69.6673 50.3386 70.3937 50.1993 71.0944C50.0599 71.7951 49.7158 72.4388 49.2106 72.944C48.7054 73.4492 48.0618 73.7933 47.361 73.9327C46.6603 74.072 45.934 74.0005 45.2739 73.7271C44.6138 73.4537 44.0496 72.9907 43.6527 72.3966C43.2558 71.8025 43.0439 71.1041 43.0439 70.3897C43.0447 69.4319 43.4256 68.5135 44.1029 67.8362C44.7801 67.159 45.6985 66.7781 46.6563 66.7773ZM46.6563 66.3018C45.8478 66.3018 45.0574 66.5415 44.3852 66.9907C43.7129 67.4399 43.1889 68.0783 42.8795 68.8253C42.5701 69.5723 42.4892 70.3942 42.6469 71.1872C42.8046 71.9802 43.194 72.7086 43.7657 73.2803C44.3374 73.852 45.0658 74.2413 45.8588 74.399C46.6517 74.5568 47.4737 74.4758 48.2207 74.1664C48.9676 73.857 49.6061 73.3331 50.0553 72.6608C50.5044 71.9885 50.7442 71.1982 50.7442 70.3897C50.7442 69.3055 50.3135 68.2657 49.5469 67.4991C48.7802 66.7324 47.7405 66.3018 46.6563 66.3018Z" fill="#3F3D56"/>
<path d="M83.4487 94.1993H5.23075C3.84395 94.1978 2.5144 93.6462 1.53378 92.6655C0.553165 91.6849 0.00156653 90.3554 0 88.9686V46.013C0.00156653 44.6262 0.553165 43.2966 1.53378 42.316C2.5144 41.3354 3.84395 40.7838 5.23075 40.7822H14.8209C16.1221 40.7811 17.3768 41.2661 18.339 42.1422L28.7389 49.5684C29.417 50.188 30.3025 50.5312 31.221 50.5305H83.9344C84.6277 50.5305 85.3141 50.6683 85.9537 50.936C86.5933 51.2036 87.1733 51.5958 87.66 52.0896C88.1467 52.5835 88.5303 53.1692 88.7886 53.8126C89.0469 54.456 89.1747 55.1444 89.1646 55.8377L88.6789 89.045C88.6532 90.4171 88.0916 91.7247 87.1141 92.6879C86.1366 93.6512 84.821 94.1937 83.4487 94.1993ZM5.23075 41.0992C3.928 41.1007 2.67904 41.6189 1.75785 42.5401C0.836668 43.4613 0.318496 44.7102 0.317015 46.013V88.9686C0.318496 90.2713 0.836668 91.5203 1.75785 92.4415C2.67904 93.3627 3.928 93.8808 5.23075 93.8823H83.4487C84.7379 93.877 85.9737 93.3674 86.892 92.4625C87.8102 91.5576 88.3378 90.3293 88.3619 89.0404L88.8476 55.833C88.8571 55.1818 88.7371 54.5351 88.4944 53.9307C88.2518 53.3262 87.8914 52.7761 87.4342 52.3121C86.9771 51.8482 86.4322 51.4798 85.8314 51.2284C85.2305 50.977 84.5857 50.8475 83.9344 50.8475H31.221C30.2267 50.8483 29.2679 50.478 28.5323 49.809L18.1324 42.3828C17.2278 41.5561 16.0464 41.0982 14.8209 41.0992H5.23075Z" fill="#3F3D56"/>
</g>
<defs>
<clipPath id="clip0_1777_132439">
<rect width="123.271" height="97.2104" fill="white"/>
</clipPath>
</defs>
</svg>
